<svg width="32" height="32" viewBox="0 0 32 32" fill="none" xmlns="http://www.w3.org/2000/svg">
<path d="M21.7032 19.316C21.5244 17.691 24.5694 12.5448 21.9607 9.08601C21.6907 8.71101 22.0657 7.92351 22.3169 7.39226C22.9269 6.10726 22.7969 5.05726 21.5782 4.42976C20.3594 3.80226 19.4182 4.37976 18.7032 5.42976C18.3657 5.92976 17.8182 6.67976 17.4307 6.64101C13.1432 6.36726 10.5257 11.716 9.07943 12.4498C7.36943 13.3173 3.45443 13.896 2.79318 16.2735C1.93193 19.346 4.65568 22.4085 10.2357 25.446C15.8157 28.4835 19.8607 29.1035 21.9482 26.696C23.5669 24.8373 21.9144 21.2298 21.7032 19.316Z" fill="#191919"/>
<path d="M18.3757 29.1702C18.011 29.1692 17.6466 29.1467 17.2845 29.1027C15.2057 28.8527 12.7445 27.9452 9.75948 26.3202C6.77448 24.6952 4.67323 23.1252 3.33198 21.5089C1.82198 19.6914 1.31698 17.8377 1.83198 16.0002C2.46323 13.7502 5.10823 12.8327 7.04073 12.1664C7.58079 11.994 8.11007 11.7895 8.62573 11.5539C8.87573 11.4289 9.46698 10.7327 9.94073 10.1789C11.5232 8.32016 13.887 5.53766 17.2807 5.62516C17.5029 5.39094 17.7021 5.13603 17.8757 4.86391C18.9857 3.23891 20.5007 2.75391 22.0332 3.54141C22.8107 3.94141 24.482 5.15891 23.2182 7.82266C23.0829 8.08965 22.9696 8.36724 22.8795 8.65266C24.8482 11.4552 23.8145 14.9902 23.1295 17.3439C22.9232 18.0477 22.667 18.9227 22.6995 19.2064C22.7857 19.7692 22.9051 20.3264 23.057 20.8752C23.5832 22.9739 24.2382 25.5864 22.7057 27.3477C21.6545 28.5614 20.2007 29.1702 18.3757 29.1702ZM17.1257 7.62516C14.7395 7.62516 12.8582 9.83766 11.472 11.4689C10.7332 12.3439 10.1495 13.0252 9.53698 13.3352C8.93965 13.6139 8.32506 13.8539 7.69698 14.0539C6.09948 14.6052 4.11073 15.2927 3.76198 16.5377C3.07823 18.9764 5.41948 21.6764 10.7207 24.5627C16.022 27.4489 19.5432 27.9377 21.1995 26.0389C22.047 25.0639 21.5332 23.0139 21.1195 21.3652C20.943 20.7278 20.8073 20.0798 20.7132 19.4252C20.6382 18.7427 20.8907 17.8764 21.2132 16.7814C21.8382 14.6427 22.6957 11.7139 21.1682 9.68766L21.157 9.67266C20.5395 8.81891 21.0695 7.70266 21.4195 6.96391C21.9895 5.76266 21.4907 5.50641 21.127 5.31891C20.8132 5.15766 20.2882 4.88766 19.537 5.98891C18.9682 6.82391 18.287 7.70766 17.3645 7.63391C17.2807 7.62516 17.2007 7.62516 17.1257 7.62516Z" fill="#191919"/>
<path d="M21.7032 19.316C21.5244 17.691 24.5694 12.5448 21.9607 9.08601C21.6907 8.71101 22.0657 7.92351 22.3169 7.39226C22.9269 6.10726 22.7969 5.05726 21.5782 4.42976C20.3594 3.80226 19.4182 4.37976 18.7032 5.42976C18.3657 5.92976 17.8182 6.67976 17.4307 6.64101C13.1432 6.36726 10.5257 11.716 9.07943 12.4498C7.36943 13.3173 3.45443 13.896 2.79318 16.2735C1.93193 19.346 4.65568 22.4085 10.2357 25.446C15.8157 28.4835 19.8607 29.1035 21.9482 26.696C23.5669 24.8373 21.9144 21.2298 21.7032 19.316Z" fill="#FFD75E"/>
<path d="M10.3053 18.8889C10.7028 18.9151 15.759 21.6839 16.1065 21.9589C16.454 22.2339 15.559 23.3851 14.019 23.4989C12.479 23.6126 10.2765 22.6939 9.83403 21.9351C9.39153 21.1764 9.90778 18.8626 10.3053 18.8889Z" fill="#ED0006"/>
<path d="M15.8212 21.8099C15.5787 21.8236 13.9324 23.5311 12.1962 22.6286C9.7912 21.3786 10.7374 19.2861 10.5712 19.0036C10.4049 18.7211 5.7937 17.0736 5.2662 17.9511C4.78245 18.7574 7.41745 21.6149 11.2349 23.5911C15.1212 25.6024 18.6612 26.3136 19.1224 25.4936C19.6687 24.5111 16.0624 21.7961 15.8212 21.8099Z" fill="white"/>
<path d="M2.47904 9.8367C2.99029 7.8892 5.08904 6.0042 6.97904 5.52795C7.44904 5.41045 7.11029 4.2867 6.58029 4.40295C4.50779 4.86545 2.28154 6.6017 1.25904 9.3567C0.999036 10.0442 2.38279 10.2055 2.47904 9.8367Z" fill="#191919"/>
<path d="M5.84292 9.59205C6.68542 8.35955 7.80417 8.07705 8.86667 7.96705C9.33667 7.91955 9.33667 6.71705 8.84542 6.7558C7.54792 6.85955 6.02917 7.1133 4.79292 8.81955C4.37542 9.3908 5.60292 9.94455 5.84292 9.59205Z" fill="#191919"/>
<path d="M27.699 14.6729C29.2715 16.0091 30.074 18.7841 29.679 20.7454C29.579 21.2316 30.7202 21.5954 30.8465 21.0529C31.3465 18.9279 30.7215 15.8654 28.6365 13.6979C28.1152 13.1566 27.4015 14.4204 27.699 14.6729Z" fill="#191919"/>
<path d="M26.4837 18.0423C27.17 19.4098 26.8675 20.5523 26.4362 21.5598C26.2462 22.0048 27.3337 22.541 27.5425 22.0823C28.135 20.7785 28.5875 19.426 27.6475 17.416C27.3425 16.761 26.2887 17.6523 26.4837 18.0423Z" fill="#191919"/>
</svg>
